<?xml version="1.0"?>
<svg xmlns="http://www.w3.org/2000/svg" viewBox="0 -0.0028373277746140957 89.81000518798828 100.02556610107422">
    <title>Terminal 终端</title>
    <path d="M64.35 47.87c-.58 0-1.17 0-1.74.05.34.73.66 1.46 1 2.2a64.86 64.86 0 0 1 5.14 25.46 65.77 65.77 0 0 1-1.34 13.26L84.44 79a11.89 11.89 0 0 0 5.37-9.28v-10a33.48 33.48 0 0 0-25.46-11.85zM21.49 69a9.3 9.3 0 0 1 9.3-9.31 9.07 9.07 0 0 1 1.66.15 39.44 39.44 0 0 1 4.73-5.73 38.15 38.15 0 0 1 15.09-9.32 58 58 0 0 0-41.94-26.64L5.38 21A11.9 11.9 0 0 0 0 30.28v39.44A11.9 11.9 0 0 0 5.38 79l22 12.68a38.86 38.86 0 0 1-1.19-14.63 9.3 9.3 0 0 1-4.7-8.05z" fill="#275cde"></path>
    <path d="M84.44 21L50.28 1.28a11.86 11.86 0 0 0-10.73 0L20.29 12.4a64 64 0 0 1 8.49 2.92 65.23 65.23 0 0 1 20.79 14 65.61 65.61 0 0 1 10.52 13.76 37.62 37.62 0 0 1 4.26-.24 38.33 38.33 0 0 1 25.46 9.64v-22.2A11.92 11.92 0 0 0 84.44 21z" fill="#0a2183"></path>
    <path d="M37 62.08a9.31 9.31 0 0 1-5.95 16.2c-.08 1-.13 2-.13 3a33.2 33.2 0 0 0 3.26 14.39l5.33 3.07a11.84 11.84 0 0 0 10.72 0l7.87-4.54a57.76 57.76 0 0 0-3.27-44.94A33.46 33.46 0 0 0 37 62.08z" fill="#01cfff"></path>
</svg>